<?xml version="1.0" standalone="no"?>
<!DOCTYPE svg PUBLIC "-//W3C//DTD SVG 20010904//EN"
 "http://www.w3.org/TR/2001/REC-SVG-20010904/DTD/svg10.dtd">
<svg version="1.0" xmlns="http://www.w3.org/2000/svg"
 width="1107.000000pt" height="1107.000000pt" viewBox="0 0 1107.000000 1107.000000"
 preserveAspectRatio="xMidYMid meet">
<metadata>
Created by potrace 1.14, written by Peter Selinger 2001-2017
</metadata>
<g transform="translate(0.000000,1107.000000) scale(0.100000,-0.100000)"
fill="#000000" stroke="none">
<path d="M5396 9373 c-4 -5 -267 -9 -584 -10 -317 -1 -584 -2 -592 -2 -14 -1
-16 -24 -15 -168 l0 -168 -373 0 c-365 0 -373 0 -377 -20 -2 -11 -3 -78 -2
-150 2 -131 -6 -168 -32 -142 -6 6 -11 7 -11 1 0 -5 -9 -10 -20 -10 -11 0 -20
4 -20 9 0 5 -6 5 -13 -2 -10 -8 -17 -7 -25 1 -9 9 -12 9 -12 -1 0 -10 -3 -11
-14 -2 -10 9 -16 9 -21 1 -5 -8 -11 -8 -21 1 -8 6 -14 7 -14 2 0 -5 -9 -9 -20
-9 -11 0 -20 4 -20 8 0 5 -9 4 -20 -2 -14 -8 -20 -8 -20 0 0 7 -6 8 -17 2 -10
-5 -29 -8 -43 -6 l-25 4 2 -147 c1 -82 4 -161 7 -176 l6 -28 -55 2 c-30 1 -57
0 -61 -4 -3 -3 -17 -2 -30 3 -13 5 -24 6 -24 2 0 -4 -47 -6 -104 -4 l-104 3 2
-38 c1 -21 -2 -44 -7 -50 -5 -7 -5 -13 -1 -13 11 0 11 -100 1 -117 -5 -7 -4
-13 1 -13 10 0 8 -62 -3 -81 -5 -7 -4 -10 3 -6 6 4 8 0 6 -10 -5 -16 -21 -18
-160 -18 -85 1 -160 -2 -166 -6 -6 -4 -8 -19 -6 -33 3 -15 1 -26 -5 -26 -7 0
-7 -3 -1 -9 5 -6 7 -61 4 -133 l-5 -123 -145 0 c-134 0 -146 -1 -157 -20 -6
-11 -8 -24 -5 -30 10 -16 11 -35 1 -41 -5 -3 -6 -10 -2 -17 10 -16 10 -58 1
-63 -5 -3 -5 -11 -1 -17 11 -19 11 -47 -1 -47 -7 0 -8 -3 -1 -8 12 -8 13 -61
3 -78 -4 -6 -4 -14 -1 -18 12 -12 11 -56 -1 -56 -7 0 -7 -3 -1 -8 12 -9 15
-72 3 -72 -5 0 -6 -6 -1 -12 4 -7 8 -27 8 -45 l1 -31 -227 0 c-126 0 -233 -3
-239 -7 -5 -3 -10 -2 -10 3 0 7 -33 8 -50 2 -3 -1 -9 -1 -15 0 -12 2 -205 2
-220 -1 -5 -1 -14 0 -20 1 -31 7 -75 6 -75 -2 0 -5 -5 -6 -10 -3 -9 6 -181 8
-231 3 -13 -1 -15 -24 -15 -173 1 -111 -3 -171 -9 -169 -25 9 -135 8 -135 -1
0 -7 -3 -7 -8 0 -4 6 -82 10 -197 10 -115 0 -193 -4 -197 -10 -5 -7 -8 -6 -8
1 0 10 -78 9 -89 -1 -2 -3 -4 -66 -3 -140 1 -99 -2 -135 -11 -137 -7 0 -73 -2
-147 -3 -74 -1 -142 -5 -150 -9 -13 -5 -15 -18 -10 -66 3 -33 3 -60 -1 -60 -4
0 -4 -13 1 -30 5 -19 5 -32 -2 -36 -6 -4 -5 -10 3 -15 10 -6 10 -9 2 -9 -7 0
-10 -6 -7 -14 9 -22 10 -196 2 -196 -4 0 -5 -6 -3 -12 10 -25 11 -110 2 -115
-5 -3 -3 -9 4 -14 12 -8 12 -10 0 -18 -11 -7 -11 -9 0 -14 12 -5 12 -6 0 -6
-11 -1 -11 -4 0 -17 10 -13 10 -17 -2 -25 -12 -7 -12 -9 1 -9 12 0 12 -2 1 -9
-9 -6 -10 -11 -2 -15 6 -4 11 -12 11 -17 0 -6 -6 -7 -13 -3 -8 5 -8 2 2 -9 11
-14 11 -17 0 -17 -10 0 -10 -3 -1 -12 16 -16 15 -31 0 -22 -9 5 -9 2 1 -9 11
-14 11 -17 0 -17 -10 0 -10 -3 -1 -12 16 -16 15 -31 0 -22 -10 5 -10 4 0 -7 9
-10 48 -14 155 -15 78 -1 147 -2 152 -3 14 -1 15 -64 1 -73 -7 -5 -7 -8 0 -8
12 0 12 -59 0 -79 -6 -9 -5 -12 2 -7 12 7 11 -51 0 -70 -4 -6 -4 -14 0 -18 11
-11 9 -50 -3 -58 -7 -5 -7 -8 1 -8 6 0 10 -16 9 -36 -2 -37 15 -54 38 -37 13
10 216 11 232 1 6 -3 10 -56 9 -127 -1 -117 -1 -121 20 -122 11 -1 94 -1 184
-1 148 -1 189 -6 163 -23 -7 -3 -7 -15 -1 -30 5 -14 5 -27 0 -30 -5 -3 -5 -18
-1 -33 5 -15 5 -36 1 -47 -4 -11 -5 -24 -2 -29 2 -4 4 -38 4 -75 0 -36 4 -68
8 -71 5 -3 166 -4 357 -3 191 1 357 0 369 -2 18 -4 20 -12 20 -77 0 -41 -4
-76 -10 -80 -8 -5 -7 -8 0 -8 8 0 11 -29 10 -95 l-2 -95 40 -1 c23 0 104 0
181 -1 l141 0 -1 -106 c0 -59 -4 -113 -8 -119 -5 -7 -4 -13 1 -13 10 0 10 -40
-1 -57 -4 -6 -3 -14 2 -17 10 -7 9 -25 -2 -43 -4 -6 -4 -14 1 -17 10 -6 9 -96
-1 -113 -4 -6 -3 -14 1 -17 11 -7 9 -46 -2 -65 -7 -11 -6 -12 5 -6 12 8 12 6
0 -8 -7 -9 -9 -17 -3 -17 8 0 10 -53 2 -70 -1 -3 -1 -9 0 -15 2 -5 4 -37 5
-70 2 -33 3 -66 4 -74 1 -9 11 -12 31 -9 17 3 30 0 30 -5 0 -5 6 -4 14 2 11 9
15 9 19 -1 3 -7 6 -8 6 -3 1 6 24 9 53 8 29 -1 73 -2 97 -2 38 -1 43 -3 38
-21 -3 -11 -1 -20 3 -20 10 0 6 -42 -5 -60 -5 -8 -4 -11 3 -6 11 7 11 -31 -1
-51 -3 -5 -3 -13 0 -17 10 -10 11 -86 1 -86 -5 0 -4 -8 1 -18 5 -10 6 -24 1
-33 -16 -28 11 -62 50 -63 19 -1 38 3 43 9 5 7 9 7 15 0 9 -14 94 -13 105 0 6
7 10 6 13 -1 3 -7 27 -10 64 -8 l60 4 1 -32 c2 -119 1 -156 -5 -166 -4 -7 -3
-12 2 -12 10 0 9 -30 -2 -48 -4 -6 -3 -12 2 -12 5 0 7 -18 5 -40 -2 -22 0 -41
4 -41 4 -1 82 -3 173 -4 91 -2 167 -3 170 -4 5 -1 5 -260 0 -271 -1 -3 -1 -9
0 -15 2 -5 4 -23 5 -40 1 -16 3 -32 4 -35 2 -9 41 -6 41 3 0 4 5 5 11 1 16 -9
153 -9 169 1 9 6 11 4 5 -6 -7 -11 -6 -12 7 -2 8 7 18 10 22 6 3 -4 30 -7 59
-7 l52 -1 0 -163 c0 -89 2 -162 5 -163 3 -1 79 -2 170 -3 91 -1 171 -5 179
-10 9 -6 12 -5 8 0 -3 6 28 10 74 10 43 0 79 -4 79 -9 0 -4 5 -5 10 -2 6 4 61
7 122 8 106 1 111 0 119 -21 5 -14 4 -22 -2 -22 -6 0 -7 -5 -3 -12 9 -14 10
-69 1 -91 -4 -10 -2 -17 4 -17 6 0 7 -6 1 -16 -5 -9 -6 -32 -2 -50 5 -21 4
-34 -2 -34 -6 0 -6 -6 1 -14 9 -10 9 -16 1 -21 -8 -5 -8 -11 0 -20 11 -13 67
-15 87 -2 6 4 14 3 17 -1 7 -11 87 -10 105 2 9 6 12 5 8 -1 -4 -6 28 -9 83 -9
54 0 86 4 83 10 -4 5 -1 6 8 0 20 -13 69 -12 69 0 0 7 3 8 8 1 10 -14 56 -15
64 -1 5 6 8 7 8 1 0 -15 43 -16 52 -2 5 8 8 8 8 1 0 -12 87 -13 107 -1 6 4 14
3 17 -2 7 -11 25 -9 45 3 9 6 12 5 8 -1 -8 -13 156 -11 165 2 5 7 8 6 8 -1 0
-11 48 -12 66 -1 6 3 14 3 18 0 10 -10 46 -11 52 -1 3 4 11 5 17 1 19 -12 40
-13 53 -2 8 6 14 6 18 0 7 -10 25 -9 44 2 6 5 12 4 12 0 0 -5 11 -9 25 -9 14
0 25 5 25 11 0 6 3 7 8 0 4 -5 14 -10 22 -10 8 0 18 5 22 10 5 7 8 6 8 -1 0
-11 48 -12 66 -1 6 3 14 3 18 0 11 -12 45 -13 51 -3 4 6 12 7 18 3 18 -11 37
-12 37 -2 0 6 7 6 18 0 26 -14 34 -14 43 1 5 7 9 8 9 2 0 -12 28 -12 47 -1 6
4 14 3 17 -2 7 -10 25 -9 43 2 6 4 14 3 17 -2 7 -10 25 -9 42 2 6 3 14 3 18 0
12 -12 36 -12 36 0 0 8 3 9 8 2 9 -14 55 -13 64 0 5 6 8 6 8 -1 0 -14 42 -13
52 1 5 7 8 6 8 -1 0 -11 78 -13 97 -1 6 4 15 3 18 -3 5 -8 11 -8 20 0 9 8 15
8 20 0 4 -7 12 -7 25 0 11 6 21 6 24 1 7 -10 25 -9 42 2 6 3 14 3 18 0 11 -11
40 -12 52 -2 8 7 14 7 18 0 6 -10 37 -8 55 4 5 3 12 1 15 -4 7 -10 25 -9 43 2
6 4 15 3 18 -3 5 -8 11 -8 20 0 7 6 16 7 19 2 6 -10 56 -9 72 1 6 3 14 3 18 0
12 -12 36 -12 36 0 0 8 3 8 8 2 9 -13 92 -15 92 -3 0 5 4 7 8 4 13 -8 11 138
-2 146 -8 6 -8 8 1 8 8 0 11 24 9 79 l-2 80 38 -3 c21 -2 38 1 38 6 0 5 5 6
12 2 18 -11 68 -10 68 1 0 7 3 7 8 0 9 -13 42 -16 42 -3 0 5 6 6 13 1 18 -11
97 -10 97 2 0 7 3 7 8 0 9 -12 72 -14 72 -1 0 4 6 4 13 -1 6 -5 23 -8 37 -6
35 5 42 5 65 0 22 -4 50 18 40 32 -3 5 -1 13 5 16 8 5 8 11 0 20 -8 9 -8 15 0
20 6 3 7 12 3 18 -12 19 -11 57 1 57 7 0 8 3 1 8 -6 4 -10 44 -10 90 0 65 3
82 15 83 8 1 134 2 280 3 228 1 265 3 265 16 0 8 5 21 10 29 5 10 4 16 -3 19
-8 2 -9 9 -2 22 7 13 7 21 0 25 -8 5 -7 11 1 21 9 11 9 14 0 14 -8 0 -9 5 -1
19 7 14 7 22 0 26 -8 5 -7 11 1 21 9 11 9 14 0 14 -8 0 -9 6 -2 18 6 11 6 24
0 35 -7 12 -6 17 3 17 8 0 9 3 3 8 -10 6 -10 12 -6 41 1 7 66 12 146 10 11 0
38 0 60 0 22 0 51 0 65 0 60 -2 91 -1 96 4 7 7 7 217 0 225 -3 3 -1 11 5 19 9
10 8 13 -1 13 -10 0 -10 3 0 15 10 12 10 15 -1 15 -10 0 -10 3 -2 11 6 6 9 17
7 24 -6 15 23 28 31 14 4 -5 12 -6 18 -2 16 10 29 11 48 2 9 -5 19 -5 23 -2
11 11 66 10 66 -1 0 -7 3 -8 8 -1 9 13 65 14 74 0 5 -7 8 -6 8 1 0 12 38 13
57 1 6 -4 14 -3 17 1 6 10 46 10 62 -1 6 -3 14 -3 18 0 12 12 56 11 56 -1 0
-7 3 -8 8 -1 9 14 102 14 102 1 0 -8 3 -8 8 -1 9 14 65 14 74 0 5 -7 8 -7 8 1
0 12 58 13 77 1 6 -4 14 -3 17 1 6 10 46 10 62 -1 6 -3 14 -3 18 0 12 12 56
11 56 -1 0 -7 3 -8 8 -1 4 6 21 11 37 11 17 0 33 -5 37 -11 5 -7 8 -7 8 1 0
11 58 13 76 1 6 -3 14 -3 18 1 11 11 50 9 58 -3 5 -7 8 -6 8 1 0 11 28 12 46
1 6 -3 14 -3 18 1 11 11 50 9 58 -3 5 -7 8 -7 8 1 0 11 58 13 76 1 6 -3 14 -3
18 0 12 12 56 11 56 -1 0 -7 3 -8 8 -1 9 13 102 15 102 3 0 -5 5 -6 12 -2 19
12 68 12 68 0 0 -6 4 -5 9 2 9 15 17 15 43 1 10 -5 19 -5 22 0 5 8 27 8 46 1
3 -1 10 -1 15 0 38 8 45 8 45 -3 0 -8 3 -8 9 1 9 15 17 15 43 1 10 -5 19 -5
22 0 7 10 31 9 42 -2 4 -4 14 -1 22 6 8 6 16 11 16 9 1 -2 8 -1 16 3 13 5 16
31 15 173 0 92 -4 172 -7 178 -5 8 41 11 158 10 91 -1 171 2 176 5 9 6 14 61
8 79 -5 14 -4 72 1 75 3 2 2 29 -1 60 -3 31 -3 58 1 61 4 2 5 13 2 25 -5 18
-2 21 23 19 16 -1 34 -1 39 0 6 1 63 2 129 1 65 0 115 3 112 6 -3 3 -1 12 5
20 9 10 8 13 -1 13 -10 0 -10 3 0 15 9 11 9 15 1 15 -7 0 -9 4 -6 10 10 16 15
50 7 50 -4 0 -7 22 -7 50 0 27 4 50 8 50 4 0 3 8 -2 18 -6 11 -6 24 1 36 7 13
7 20 -1 26 -8 5 -9 14 -2 33 7 18 7 27 -1 29 -8 3 -8 10 -1 23 6 11 7 29 3 40
-4 11 -3 26 2 33 6 6 7 12 2 12 -11 0 -10 51 0 68 4 7 3 12 -2 12 -6 0 -7 13
-3 33 5 18 5 41 1 52 -4 11 -4 30 1 43 5 12 5 22 1 22 -10 0 -8 73 2 89 4 6 2
11 -3 11 -13 0 -10 22 4 32 6 5 5 8 -4 8 -10 0 -11 3 -2 13 6 8 7 17 3 21 -4
4 -7 13 -7 19 0 9 -41 12 -140 13 -77 1 -144 2 -150 3 -6 0 -10 58 -9 151 0
114 -3 151 -13 154 -7 3 -13 0 -13 -6 0 -7 -4 -7 -14 1 -10 8 -16 9 -21 1 -4
-7 -12 -7 -26 0 -14 8 -19 7 -19 -1 0 -9 -3 -9 -14 0 -10 8 -16 9 -21 1 -4 -7
-12 -7 -26 0 -12 7 -19 7 -19 1 0 -7 -9 -7 -25 -1 -17 7 -25 6 -25 -1 0 -8 -4
-8 -12 -2 -15 10 -28 11 -43 1 -6 -3 -19 -1 -30 5 -17 11 -20 23 -20 97 0 47
4 88 10 93 7 5 7 9 0 15 -14 9 -13 95 0 104 11 9 9 9 -55 12 -25 1 -51 -2 -57
-7 -8 -6 -13 -6 -13 -1 0 8 -104 11 -120 4 -3 -1 -9 -1 -15 0 -30 7 -76 6 -81
-2 -3 -4 -13 -5 -22 0 -21 10 -73 9 -90 -1 -6 -5 -12 -4 -12 0 0 5 -18 8 -40
8 -22 0 -40 -4 -40 -10 0 -7 -3 -7 -8 0 -4 6 -18 11 -32 11 -14 1 -30 2 -37 3
-12 1 -12 59 1 79 3 6 2 13 -2 16 -10 6 -8 93 2 103 3 3 1 12 -6 20 -8 10 -8
17 0 25 7 7 7 19 0 39 -8 25 -14 28 -38 24 -16 -3 -32 0 -35 5 -4 6 -12 7 -18
3 -17 -11 -57 -11 -63 -1 -3 4 -11 5 -17 1 -19 -12 -40 -13 -53 -2 -8 6 -14 6
-18 0 -3 -5 -14 -8 -23 -7 -13 2 -18 13 -18 39 -1 21 3 37 7 37 5 0 6 6 2 12
-12 20 -11 318 1 318 7 0 7 3 0 8 -14 9 -13 284 0 294 7 5 7 8 0 8 -6 0 -10
34 -10 80 0 44 3 80 8 80 4 0 4 8 -1 18 -5 9 -8 70 -7 136 1 80 -2 119 -10
122 -6 3 -88 6 -181 7 l-169 2 0 458 c0 251 -2 457 -5 458 -3 1 -43 2 -90 3
-47 0 -90 4 -96 8 -6 4 -14 4 -18 0 -4 -3 -32 -7 -61 -9 l-54 -1 2 114 c1 71
-2 114 -8 114 -5 0 -4 4 3 9 8 4 14 12 14 16 0 4 -6 12 -14 16 -9 6 -10 9 -1
9 7 0 10 6 7 13 -4 11 -41 14 -172 13 -92 -1 -170 2 -173 7 -4 5 -16 3 -27 -4
-12 -7 -24 -10 -27 -7 -4 4 -7 84 -8 180 l-2 173 -190 5 -190 5 -1 145 c-1 80
-5 154 -7 165 -3 11 -6 23 -6 26 -1 3 -28 5 -61 4 -34 -1 -63 2 -66 7 -3 4
-11 5 -17 1 -19 -12 -137 -11 -137 1 0 7 -3 8 -8 1 -9 -13 -246 -14 -259 0
-15 16 -16 27 -1 36 7 5 8 9 2 9 -12 0 -11 110 1 130 6 9 4 11 -6 5 -12 -8
-12 -6 0 8 7 9 9 17 3 17 -5 0 -9 17 -7 38 3 44 -2 59 -21 66 -9 3 -12 1 -9
-4 4 -6 -7 -8 -27 -6 -18 2 -39 -1 -47 -8 -9 -6 -12 -7 -9 -1 5 8 -62 11 -210
10 l-217 -1 1 150 c1 83 -3 161 -7 174 -10 26 -47 43 -68 32 -8 -4 -25 -4 -38
1 -13 5 -25 4 -28 -1 -4 -7 -13 -6 -25 0 -11 6 -21 6 -25 1 -5 -9 -54 -5 -64
4 -2 2 -12 0 -22 -6 -13 -7 -19 -6 -19 1 0 6 -5 8 -12 4 -17 -11 -58 -11 -58
-1 0 4 -9 3 -20 -3 -15 -8 -20 -8 -20 1 0 8 -4 8 -13 1 -8 -7 -18 -7 -27 -2
-8 5 -19 6 -24 2 -16 -9 -96 -8 -96 2 0 5 -7 3 -16 -5 -13 -10 -17 -10 -25 2
-7 12 -9 12 -9 -1 0 -12 -2 -12 -9 -1 -5 7 -11 9 -14 4 -7 -11 -91 -8 -109 3
-6 4 -8 3 -5 -3 7 -11 -84 -10 -102 1 -6 4 -11 3 -11 -2 0 -11 -50 -9 -68 2
-7 4 -12 3 -12 -1 0 -12 -93 -10 -102 2 -5 6 -8 6 -8 -1 0 -8 -11 -9 -34 -4
-19 4 -38 5 -41 2 -9 -9 -275 -8 -275 1 0 5 -6 5 -12 0 -17 -10 -101 -11 -109
0 -3 4 -9 4 -13 0z"/>
<path d="M2087 7763 c-5 -8 9 -53 17 -53 6 0 0 49 -7 56 -3 3 -7 2 -10 -3z"/>
</g>
</svg>
